<?xml version="1.0" standalone="no"?>
<!DOCTYPE svg PUBLIC "-//W3C//DTD SVG 20010904//EN"
 "http://www.w3.org/TR/2001/REC-SVG-20010904/DTD/svg10.dtd">
<svg version="1.0" xmlns="http://www.w3.org/2000/svg"
 width="908.000000pt" height="908.000000pt" viewBox="0 0 908.000000 908.000000"
 preserveAspectRatio="xMidYMid meet">
<metadata>
Created by potrace 1.14, written by Peter Selinger 2001-2017
</metadata>
<g transform="translate(0.000000,908.000000) scale(0.100000,-0.100000)"
fill="#000000" stroke="none">
<path d="M2998 8545 c-2 -2 -37 -6 -78 -10 -41 -4 -84 -9 -95 -11 -10 -2 -37
-6 -60 -9 -22 -3 -48 -8 -57 -11 -9 -3 -25 -7 -35 -9 -265 -54 -551 -189 -763
-361 -61 -49 -160 -145 -210 -203 -24 -29 -28 -26 -34 22 -11 86 -63 163 -128
190 -50 21 -152 15 -216 -13 -46 -20 -52 -20 -78 -7 -43 22 -112 39 -161 39
-106 0 -239 -108 -316 -257 -26 -52 -31 -71 -31 -140 -1 -66 3 -89 24 -130 39
-79 131 -155 189 -155 15 0 22 -8 27 -35 11 -60 59 -121 117 -149 29 -13 63
-23 77 -22 71 7 141 36 186 77 11 11 28 17 36 14 14 -5 14 -14 1 -73 -11 -52
-12 -117 -8 -287 10 -360 13 -455 11 -455 -1 0 -15 4 -31 9 -46 13 -77 -3 -73
-36 2 -22 11 -31 38 -39 l35 -12 -40 -11 c-45 -12 -95 -53 -118 -97 -53 -103
-53 -288 0 -504 79 -322 248 -505 485 -525 35 -3 84 -1 110 3 l47 9 56 -176
c146 -453 158 -482 244 -591 87 -110 245 -248 412 -360 l67 -45 0 -245 c1
-294 -5 -325 -74 -394 -41 -40 -97 -66 -126 -58 -9 2 -134 -24 -196 -41 -29
-9 -53 -15 -55 -15 -1 0 -31 -9 -67 -20 -345 -107 -558 -348 -635 -717 -24
-119 -38 -951 -16 -964 6 -4 38 -6 71 -6 l60 2 1 -511 c0 -281 2 -522 5 -535
14 -75 92 -180 159 -214 70 -35 106 -37 801 -39 379 -1 745 -5 814 -9 119 -8
4568 -12 4579 -4 13 8 3 231 -12 265 -19 43 -62 83 -106 98 -25 9 -220 12
-698 12 -576 1 -663 3 -653 15 6 8 20 17 30 20 25 8 60 66 60 99 0 29 -35 145
-56 188 -14 27 -200 184 -261 220 -27 17 -44 19 -86 14 -29 -4 -61 -6 -72 -5
-57 3 -85 -3 -250 -55 -99 -32 -191 -61 -205 -66 -80 -29 -128 -32 -460 -32
-419 0 -387 -1 -372 14 27 27 7 100 -36 135 -27 22 -78 14 -214 -33 -73 -25
-140 -47 -148 -49 -8 -2 -32 -11 -52 -19 -37 -16 -38 -16 -38 6 -1 25 -1 376
0 446 0 39 2 43 23 42 12 -1 33 -2 46 -1 l24 1 -7 298 c-7 340 -10 403 -25
489 -51 280 -214 517 -472 686 -64 42 -97 57 -234 104 -55 19 -118 43 -140 53
-50 23 -142 50 -148 43 -3 -2 -37 5 -77 17 -86 26 -148 80 -168 148 -12 39
-20 338 -9 348 2 2 18 -59 37 -136 34 -145 49 -172 90 -168 20 3 26 -4 35 -36
15 -53 52 -81 87 -67 23 9 29 6 42 -15 18 -26 63 -33 84 -12 10 10 16 7 28
-10 9 -13 25 -22 42 -22 33 0 45 8 61 38 12 22 14 22 30 8 23 -21 57 -20 79 2
18 18 20 18 41 1 17 -14 27 -16 50 -8 30 11 36 20 83 139 16 41 36 89 43 105
7 17 29 68 48 115 29 72 46 96 109 160 182 184 355 422 450 620 86 179 155
422 198 695 6 39 13 81 15 95 2 14 7 50 10 80 4 30 8 66 10 80 2 14 7 61 10
105 4 44 9 91 10 105 2 14 3 34 4 46 1 17 8 21 36 22 66 3 126 50 142 112 5
19 9 126 8 237 l-1 202 -30 38 c-33 41 -67 62 -106 65 l-24 2 0 166 c1 251
-27 494 -79 700 -8 30 -16 66 -19 80 -7 36 -66 230 -76 249 -8 16 -19 47 -20
56 0 3 -18 39 -41 81 -112 211 -308 394 -554 519 -87 44 -247 106 -310 120
-11 2 -48 11 -83 20 -34 8 -95 20 -135 26 -40 6 -83 13 -97 16 -27 5 -437 13
-442 8z m1906 -2141 c21 -21 20 -25 -6 -20 -13 3 -33 5 -45 5 -14 1 -23 7 -23
16 0 20 54 20 74 -1z m4 -94 c18 0 22 -6 22 -31 0 -28 -2 -30 -17 -18 -17 13
-17 13 0 -7 14 -17 17 -41 17 -151 0 -143 -6 -159 -67 -169 -28 -4 -29 -3 -42
63 -18 96 -20 113 -9 113 5 0 6 5 2 12 -12 19 -11 128 1 128 7 0 7 3 0 8 -6 4
-10 13 -9 20 1 6 2 19 3 28 1 13 8 15 39 10 20 -3 47 -6 60 -6z"/>
<path d="M4850 6281 c0 -6 4 -13 10 -16 6 -3 7 1 4 9 -7 18 -14 21 -14 7z"/>
<path d="M4879 6240 c-3 -20 -4 -25 -13 -40 -7 -12 -6 -13 4 -3 13 12 25 53
15 53 -3 0 -6 -4 -6 -10z"/>
<path d="M4829 6183 c-13 -16 -12 -17 4 -4 16 13 21 21 13 21 -2 0 -10 -8 -17
-17z"/>
<path d="M4841 6160 c-13 -11 -18 -20 -13 -20 6 0 14 5 17 10 4 6 10 8 14 6 4
-3 8 1 8 9 0 8 -1 15 -1 15 -1 -1 -12 -10 -25 -20z"/>
<path d="M4875 6129 c-4 -6 -5 -12 -2 -15 2 -3 7 2 10 11 7 17 1 20 -8 4z"/>
<path d="M4824 6042 c4 -3 14 -7 22 -8 9 -1 13 0 10 4 -4 3 -14 7 -22 8 -9 1
-13 0 -10 -4z"/>
</g>
</svg>
